# xmcd
#
# Track frame offsets: 
#        150
#        16765
#        33943
#        51986
#        78782
#        96417
#        117097
#        139609
#        157289
#        177622
#        198488
#        214440
#        234592
#        259778
#        284329
#        306485
#        326611
#
# Disc length: 4637 seconds
#
# Revision: 4
# Processed by: cddbd v1.4PL0 Copyright (c) Steve Scherf et al.
# Submitted via: ExactAudioCopy v0.90b4
#
DISCID=fb121b11
DTITLE=STING - POP Collection
DYEAR=1900
DGENRE=
TTITLE0=Fields Of Gold
TTITLE1=How Insensitive
TTITLE2=Russians
TTITLE3=A Thousand Years
TTITLE4=Fragile
TTITLE5=Shape Of My Heart
TTITLE6=It's Probably Me
TTITLE7=Mad About You
TTITLE8=If I Ever Lose My Faith In You
TTITLE9=Who Should I Cry For You?
TTITLE10=Love Is The Seventh Wave
TTITLE11=Englishman In New York
TTITLE12=When We Dance
TTITLE13=The Hounds Of Winter
TTITLE14=All This Time
TTITLE15=Let Your Soul Be Your Pilot
TTITLE16=Desert Rose
EXTD=
EXTT0=
EXTT1=
EXTT2=
EXTT3=
EXTT4=
EXTT5=
EXTT6=
EXTT7=
EXTT8=
EXTT9=
EXTT10=
EXTT11=
EXTT12=
EXTT13=
EXTT14=
EXTT15=
EXTT16=
PLAYORDER=
